<svg xmlns="http://www.w3.org/2000/svg" width="1200" height="300" viewBox="0 0 1200 300" role="img" aria-labelledby="title desc">
  <title id="title">AI Pregnancy Calorie Calculator logo</title>
  <desc id="desc">Minimal berry magenta pregnancy belly and calorie flame mark with rounded sans-serif wordmark.</desc>
  <g fill="none" stroke="#9c2760" stroke-linecap="round" stroke-linejoin="round">
    <path d="M153 55c-44 13-78 51-87 99-9 52 20 102 72 124" stroke-width="17"/>
    <path d="M156 278c68-8 119-58 124-121 4-55-27-99-76-111" stroke-width="17"/>
    <path d="M126 92c23 18 41 41 51 68" stroke-width="13"/>
    <path d="M174 196c-20 8-43 9-64 1" stroke-width="13"/>
  </g>
  <path fill="#9c2760" d="M213 93c23 21 33 43 30 65-3 27-24 46-51 46-26 0-48-18-51-44-3-23 11-46 39-69-1 16 6 29 19 39 13-10 18-22 14-37z"/>
  <path fill="#fff" d="M203 149c9 10 12 19 10 27-2 10-10 17-21 17s-20-7-21-17c-2-9 3-18 16-29 1 7 5 13 11 16 5-4 7-8 5-14z" opacity=".95"/>
  <text x="315" y="170" fill="#9c2760" font-family="Inter, Avenir Next, Nunito Sans, Segoe UI, Arial, sans-serif" font-size="52" font-weight="700" letter-spacing="0">AI Pregnancy Calorie Calculator</text>
</svg>
